# xmcd
#
# Track frame offsets:
#	150
#	15058
#	28833
#	43840
#	56860
#	71313
#	88605
#	104293
#	119340
#	130873
#	143783
#	171798
#
# Disc length: 3257 seconds
#
# Revision: 2
# Processed by: cddbd v1.5.1PL0 Copyright (c) Steve Scherf et al.
# Submitted via: audiograbber 1.83.01
#
DISCID=9d0cb70c
DTITLE=Cyndi Thomson - My World
DYEAR=2001
DGENRE=Country
TTITLE0=My World
TTITLE1=I Always Liked That Best
TTITLE2=What I Really Meant To Say
TTITLE3=Things I Would Do
TTITLE4=If You Could Only See
TTITLE5=I'm Gone
TTITLE6=If You Were Mine
TTITLE7=Hope You're Doing Fine
TTITLE8=There Goes The Boy
TTITLE9=But I Want To
TTITLE10=I'll Be Seeing You
TTITLE11=Data Track
EXTD=
EXTT0=
EXTT1=
EXTT2=
EXTT3=
EXTT4=
EXTT5=
EXTT6=
EXTT7=
EXTT8=
EXTT9=
EXTT10=
EXTT11=
PLAYORDER=
